<?xml version="1.0" encoding="UTF-8"?><svg id="Layer_1" xmlns="http://www.w3.org/2000/svg" viewBox="0 0 640 442.34"><defs><style>.cls-1{fill:#fff;}</style></defs><path class="cls-1" d="M257.98,235.31L63.64,429.66c-9.37,9.37-24.57,9.37-33.94,0l-22.67-22.67c-9.36-9.36-9.38-24.52-.04-33.9L161.01,218.34,6.99,63.6c-9.34-9.38-9.32-24.54,.04-33.9L29.7,7.03c9.37-9.37,24.57-9.37,33.94,0l194.34,194.34c9.37,9.37,9.37,24.57,0,33.94Zm382.02,183.03v-32c0-13.26-10.74-24-24-24H312c-13.26,0-24,10.74-24,24v32c0,13.26,10.74,24,24,24h304c13.26,0,24-10.74,24-24Z"/></svg>